<svg  viewBox="0 0 154 231" xmlns="http://www.w3.org/2000/svg">
 <metadata id="metadata8">image/svg+xml</metadata>

 <g class="currentLayer">
  <title>Layer 1</title>
  <path stroke="#8a8ae9" fill-rule=" nonzero" opacity="0" fill="#8d83f3" stroke-width="0" d="m147.2375,165.97747c0,6.62813 -5.228886,12 -11.67742,12l-121.445164,0c-6.449439,0 -11.67742,-5.37187 -11.67742,-12l0,-117.33347c0,-6.628 5.227981,-12 11.67742,-12l121.445164,0c6.448534,0 11.67742,5.372 11.67742,12l0,117.33347" id="path14"/>
  <path fill="#8d83f3" stroke="#8a8ae9" stroke-width="0" d="m111.61457,95.866l-37.3984,71.55933l-27.58694,0l24.85254,-47.55933l-62.85312,0l37.40005,-71.55933l27.58587,0l-24.8516,47.55933l62.8516,0" id="path16"/>
  <path fill="#8d83f3" id="svg_1" stroke="#8a8ae9" stroke-width="0" d="m112.39582,95.08475l-37.3984,71.55933l-27.58694,0l24.85254,-47.55933l-62.85312,0l37.40005,-71.55933l27.58587,0l-24.8516,47.55933l62.8516,0"/>
  <path fill="#8d83f3" stroke="#8a8ae9" stroke-width="0" d="m133.3655,49.65067c0.372,-0.052 0.56933,0.072 0.64,0.32c-7.4664,14.18666 -14.4716,28.83586 -21.76067,43.20053c-3.0928,0 -6.18493,0 -9.27866,0c-1.19694,0 -3.25267,-1.40893 -4.23694,-2.05c-1.28133,-0.83547 -2.3568,-1.90947 -3.2172,-3.17187c-2.04946,-3.0068 -3.15266,-6.83853 -2.92346,-10.47186c0.302,-4.79747 2.2796,-10.22414 6.8568,-12.4668c13.47386,-6.60134 13.9244,-6.82134 33.92013,-15.36" id="path18"/>
  <path fill="#8d83f3" id="svg_4" stroke="#8a8ae9" stroke-width="0" d="m133.3655,49.65067c0.372,-0.052 0.56933,0.072 0.64,0.32c-7.4664,14.18666 -14.4716,28.83586 -21.76067,43.20053c-3.0928,0 -6.18493,0 -9.27866,0c-1.19694,0 -3.25267,-1.40893 -4.23694,-2.05c-1.28133,-0.83547 -2.3568,-1.90947 -3.2172,-3.17187c-2.04946,-3.0068 -3.15266,-6.83853 -2.92346,-10.47186c0.302,-4.79747 2.2796,-10.22414 6.8568,-12.4668c13.47386,-6.60134 13.9244,-6.82134 33.92013,-15.36"/>
  <path fill="#8d83f3" id="svg_2" stroke="#8a8ae9" stroke-width="0" d="m133.3655,49.65067c0.372,-0.052 0.56933,0.072 0.64,0.32c-7.4664,14.18666 -14.4716,28.83586 -21.76067,43.20053c-3.0928,0 -6.18493,0 -9.27866,0c-1.19694,0 -3.25267,-1.40893 -4.23694,-2.05c-1.28133,-0.83547 -2.3568,-1.90947 -3.2172,-3.17187c-2.04946,-3.0068 -3.15266,-6.83853 -2.92346,-10.47186c0.302,-4.79747 2.2796,-10.22414 6.8568,-12.4668c13.47386,-6.60134 13.9244,-6.82134 33.92013,-15.36"/>
  <path fill="#8d83f3" stroke="#8a8ae9" stroke-width="0" d="m103.03283,49.65067c0.3708,-0.052 0.56867,0.072 0.63907,0.32c-7.46613,14.18666 -14.47133,28.83586 -21.7604,43.20053c-3.0928,0 -6.18493,0 -9.27867,0c-1.19693,0 -3.25266,-1.40893 -4.23693,-2.05c-1.28133,-0.83547 -2.3568,-1.90947 -3.2172,-3.17187c-2.04947,-3.0068 -3.15267,-6.83853 -2.92347,-10.47186c0.302,-4.79747 2.2796,-10.22414 6.8568,-12.4668c13.47387,-6.60134 13.9244,-6.82134 33.9208,-15.36" id="path20"/>
  <path fill="#8d83f3" id="svg_3" stroke="#8a8ae9" stroke-width="0" d="m103.03283,49.65067c0.3708,-0.052 0.56867,0.072 0.63907,0.32c-7.46613,14.18666 -14.47133,28.83586 -21.7604,43.20053c-3.0928,0 -6.18493,0 -9.27867,0c-1.19693,0 -3.25266,-1.40893 -4.23693,-2.05c-1.28133,-0.83547 -2.3568,-1.90947 -3.2172,-3.17187c-2.04947,-3.0068 -3.15267,-6.83853 -2.92347,-10.47186c0.302,-4.79747 2.2796,-10.22414 6.8568,-12.4668c13.47387,-6.60134 13.9244,-6.82134 33.9208,-15.36"/>
  <path fill="#8d83f3" id="svg_6" stroke="#8a8ae9" stroke-width="0" d="m103.03283,49.65067c0.3708,-0.052 0.56867,0.072 0.63907,0.32c-7.46613,14.18666 -14.47133,28.83586 -21.7604,43.20053c-3.0928,0 -6.18493,0 -9.27867,0c-1.19693,0 -3.25266,-1.40893 -4.23693,-2.05c-1.28133,-0.83547 -2.3568,-1.90947 -3.2172,-3.17187c-2.04947,-3.0068 -3.15267,-6.83853 -2.92347,-10.47186c0.302,-4.79747 2.2796,-10.22414 6.8568,-12.4668c13.47387,-6.60134 13.9244,-6.82134 33.9208,-15.36"/>
  <path fill="#8d83f3" id="svg_7" stroke="#8a8ae9" stroke-width="0" d="m103.81408,48.86942c0.3708,-0.052 0.56867,0.072 0.63907,0.32c-7.46613,14.18666 -14.47133,28.83586 -21.7604,43.20053c-3.0928,0 -6.18493,0 -9.27867,0c-1.19693,0 -3.25266,-1.40893 -4.23693,-2.05c-1.28133,-0.83547 -2.3568,-1.90947 -3.2172,-3.17187c-2.04947,-3.0068 -3.15267,-6.83853 -2.92347,-10.47186c0.302,-4.79747 2.2796,-10.22414 6.8568,-12.4668c13.47387,-6.60134 13.9244,-6.82134 33.9208,-15.36"/>
  <path fill="#8d83f3" id="svg_8" stroke="#8a8ae9" stroke-width="0" d="m102.25158,48.86942c0.3708,-0.052 0.56867,0.072 0.63907,0.32c-7.46613,14.18666 -14.47133,28.83586 -21.7604,43.20053c-3.0928,0 -6.18493,0 -9.27867,0c-1.19693,0 -3.25266,-1.40893 -4.23693,-2.05c-1.28133,-0.83547 -2.3568,-1.90947 -3.2172,-3.17187c-2.04947,-3.0068 -3.15267,-6.83853 -2.92347,-10.47186c0.302,-4.79747 2.2796,-10.22414 6.8568,-12.4668c13.47387,-6.60134 13.9244,-6.82134 33.9208,-15.36"/>
  <ellipse id="svg_13" cy="107.421875" cx="73.5" stroke-width="0" fill="#8d83f3"/>
 </g>
 <g>
  <title>Layer 2</title>
  <rect fill="none" y="0" x="0" height="100%" width="100%" id="backgroundrect"/>
 </g>
 <g>
  <title>background</title>
  <rect fill="none" id="canvas_background" height="402" width="582" y="-1" x="-1"/>
 </g>
</svg>